<?xml version="1.0" standalone="no"?>
<!DOCTYPE svg PUBLIC "-//W3C//DTD SVG 20010904//EN"
 "http://www.w3.org/TR/2001/REC-SVG-20010904/DTD/svg10.dtd">
<svg version="1.0" xmlns="http://www.w3.org/2000/svg"
 width="48.000000pt" height="48.000000pt" viewBox="0 0 48.000000 48.000000"
 preserveAspectRatio="xMidYMid meet">
<metadata>
Created by potrace 1.10, written by Peter Selinger 2001-2011
</metadata>
<g transform="translate(0.000000,48.000000) scale(0.100000,-0.100000)"
fill="#000000" stroke="none">
<path d="M245 411 l-16 -50 31 -46 c30 -43 33 -45 82 -45 42 0 49 3 44 16 -3
9 -6 27 -6 40 0 21 -5 24 -35 24 -23 0 -35 -5 -35 -13 0 -21 12 -28 26 -16 11
9 15 7 20 -5 9 -24 0 -29 -35 -21 -28 6 -31 10 -31 46 l0 40 35 -7 35 -6 0 41
c0 33 -3 41 -19 41 -10 0 -32 3 -49 6 -28 6 -30 4 -47 -45z"/>
<path d="M192 398 c-26 -16 -32 -26 -28 -42 4 -12 9 -39 12 -61 6 -38 11 -44
73 -79 l66 -38 73 36 c77 39 76 36 66 122 -6 49 -7 50 -40 51 -22 1 -34 -4
-34 -12 0 -7 5 -15 10 -17 6 -2 13 -26 16 -55 l7 -51 -59 -4 c-57 -5 -60 -4
-91 31 -50 56 -59 77 -46 112 6 16 11 29 10 29 -1 0 -17 -10 -35 -22z"/>
<path d="M110 332 c0 -12 39 -47 45 -41 11 12 -9 49 -26 49 -11 0 -19 -4 -19
-8z"/>
<path d="M110 215 l-34 -35 36 0 c40 0 98 18 98 30 0 5 -9 12 -20 15 -11 3
-20 11 -20 16 0 19 -27 8 -60 -26z"/>
<path d="M392 196 l-24 -13 30 -12 c17 -7 38 -11 47 -9 14 3 13 6 -7 25 -20
19 -26 20 -46 9z"/>
<path d="M214 186 c-10 -8 -15 -18 -11 -22 8 -8 -80 -104 -95 -104 -4 0 -8 7
-8 16 0 26 -17 6 -22 -26 -6 -40 20 -40 65 0 19 17 44 30 55 30 27 0 37 16 16
24 -13 5 -14 9 -4 21 7 8 19 15 26 15 11 0 13 7 8 28 -9 35 -7 34 -30 18z"/>
<path d="M260 170 c0 -15 64 -80 79 -80 16 0 24 26 17 54 -4 17 -12 23 -33 23
-16 0 -36 3 -45 7 -12 5 -18 4 -18 -4z"/>
</g>
</svg>
